<svg xmlns="http://www.w3.org/2000/svg" xmlns:xlink="http://www.w3.org/1999/xlink" width="907.196" height="529.328" viewBox="0 0 907.196 529.328">
  <defs>
    <clipPath id="clip-path">
      <rect width="907.196" height="529.328" fill="none"/>
    </clipPath>
  </defs>
  <g id="undraw_personal_info" clip-path="url(#clip-path)">
    <g id="undraw_personal_info-2" data-name="undraw_personal_info" transform="translate(-114.72 -32.772)">
      <path id="Path_91" data-name="Path 91" d="M564.6,649.813c13.487,40.59,8.75,78.7,8.75,78.7s-26.6-27.7-40.09-68.288-8.75-78.7-8.75-78.7S551.116,609.223,564.6,649.813Z" transform="translate(-69.01 -168.95)" fill="#13b973"/>
      <path id="Path_92" data-name="Path 92" d="M582.1,649.813c-13.487,40.59-8.75,78.7-8.75,78.7s26.6-27.7,40.09-68.288,8.75-78.7,8.75-78.7S595.59,609.223,582.1,649.813Z" transform="translate(-69.01 -168.95)" fill="#13b973"/>
      <path id="Path_93" data-name="Path 93" d="M587.535,650.252c.9,42.762-14.872,77.777-14.872,77.777s-17.242-34.317-18.146-77.079,14.872-77.777,14.872-77.777S586.631,607.49,587.535,650.252Z" transform="translate(-69.01 -168.95)" fill="#3f3d56"/>
      <ellipse id="Ellipse_14" data-name="Ellipse 14" cx="38.141" cy="2.093" rx="38.141" ry="2.093" transform="translate(465.503 557.469)" fill="#3f3d56"/>
      <circle id="Ellipse_15" data-name="Ellipse 15" cx="21.641" cy="21.641" r="21.641" transform="translate(118.369 516.93)" fill="#f2f2f2"/>
      <path id="Path_94" data-name="Path 94" d="M212.99,672.51a29.3,29.3,0,0,0-29.26,29.27c0,.16,0,.32.01.48a29.329,29.329,0,0,0,16.44,25.83,28.331,28.331,0,0,0,5.37,2,29.347,29.347,0,0,0,14.89,0,28.332,28.332,0,0,0,5.37-2,29.268,29.268,0,0,0-12.82-55.58Zm7.16,55.58a26.842,26.842,0,0,1-7.16.96c-.48,0-.96-.01-1.43-.04h-.01a26.279,26.279,0,0,1-5.71-.92,27.359,27.359,0,0,1-17.85-15.45v-.01a27.26,27.26,0,1,1,32.16,15.46Z" transform="translate(-69.01 -168.95)" fill="#3f3d56"/>
      <rect id="Rectangle_8" data-name="Rectangle 8" width="162" height="28.766" transform="translate(227.99 391.524)" fill="#f2f2f2"/>
      <rect id="Rectangle_9" data-name="Rectangle 9" width="162" height="28.766" transform="translate(732.99 122.524)" fill="#f2f2f2"/>
      <rect id="Rectangle_10" data-name="Rectangle 10" width="162" height="28.766" transform="translate(732.99 185.524)" fill="#f2f2f2"/>
      <rect id="Rectangle_11" data-name="Rectangle 11" width="162" height="28.766" transform="translate(732.99 246.524)" fill="#f2f2f2"/>
      <rect id="Rectangle_12" data-name="Rectangle 12" width="162" height="28.766" transform="translate(732.99 307.524)" fill="#f2f2f2"/>
      <rect id="Rectangle_13" data-name="Rectangle 13" width="162" height="28.766" transform="translate(732.99 370.524)" fill="#f2f2f2"/>
      <rect id="Rectangle_14" data-name="Rectangle 14" width="162" height="28.766" transform="translate(732.99 433.524)" fill="#f2f2f2"/>
      <path id="Path_95" data-name="Path 95" d="M296,550.24v40H512v-40Zm214,38H298v-36H510Z" transform="translate(-69.01 -168.95)" fill="#3f3d56"/>
      <circle id="Ellipse_16" data-name="Ellipse 16" cx="10" cy="10" r="10" transform="translate(576.99 146.29)" fill="#3f3d56"/>
      <circle id="Ellipse_17" data-name="Ellipse 17" cx="10" cy="10" r="10" transform="translate(576.99 208.29)" fill="#3f3d56"/>
      <circle id="Ellipse_18" data-name="Ellipse 18" cx="10" cy="10" r="10" transform="translate(576.99 270.29)" fill="#3f3d56"/>
      <circle id="Ellipse_19" data-name="Ellipse 19" cx="10" cy="10" r="10" transform="translate(576.99 332.29)" fill="#3f3d56"/>
      <circle id="Ellipse_20" data-name="Ellipse 20" cx="10" cy="10" r="10" transform="translate(576.99 394.29)" fill="#3f3d56"/>
      <circle id="Ellipse_21" data-name="Ellipse 21" cx="10" cy="10" r="10" transform="translate(576.99 456.29)" fill="#3f3d56"/>
      <rect id="Rectangle_15" data-name="Rectangle 15" width="274" height="2" transform="translate(676.99 155.29)" fill="#3f3d56"/>
      <rect id="Rectangle_16" data-name="Rectangle 16" width="274" height="2" transform="translate(676.99 217.29)" fill="#3f3d56"/>
      <rect id="Rectangle_17" data-name="Rectangle 17" width="274" height="2" transform="translate(676.99 279.29)" fill="#3f3d56"/>
      <rect id="Rectangle_18" data-name="Rectangle 18" width="274" height="2" transform="translate(676.99 341.29)" fill="#3f3d56"/>
      <rect id="Rectangle_19" data-name="Rectangle 19" width="274" height="2" transform="translate(676.99 403.29)" fill="#3f3d56"/>
      <rect id="Rectangle_20" data-name="Rectangle 20" width="274" height="2" transform="translate(676.99 465.29)" fill="#3f3d56"/>
      <path id="Path_96" data-name="Path 96" d="M1069.36,692.166,1043.074,670.6l21.565-26.286,26.286,21.565Zm-23.472-21.843,23.194,19.028,19.028-23.194-23.194-19.028Z" transform="translate(-69.01 -168.95)" fill="#3f3d56"/>
      <rect id="Rectangle_21" data-name="Rectangle 21" width="32" height="32" transform="matrix(0.773, 0.634, -0.634, 0.773, 594.768, 32.772)" fill="#13b973"/>
      <path id="Path_97" data-name="Path 97" d="M537,387.24a132.326,132.326,0,0,1-25.6,78.44c-1.9,2.6-3.89,5.14-5.98,7.59a133.413,133.413,0,0,1-19.7,18.9c-.72.56-1.45,1.12-2.19,1.67q-4.05,3.03-8.33,5.75c-.87.55-1.74,1.09-2.62,1.61q-2.985,1.815-6.08,3.46c-1.01.54-2.03,1.07-3.05,1.58a133.091,133.091,0,0,1-133.15-8.29c-1.04-.68-2.06-1.38-3.07-2.1-1.9-1.34-3.77-2.74-5.59-4.18-1.68-1.32-3.32-2.69-4.93-4.09a133.167,133.167,0,0,1-22.35-25.04q-1.86-2.715-3.6-5.52A133.006,133.006,0,1,1,537,387.24Z" transform="translate(-69.01 -168.95)" fill="#3f3d56"/>
      <circle id="Ellipse_22" data-name="Ellipse 22" cx="36.234" cy="36.234" r="36.234" transform="translate(293.747 139.259)" fill="#a0616a"/>
      <path id="Path_98" data-name="Path 98" d="M374.08,361.806s12.078,27.176-4.529,37.744S396.727,453.9,396.727,453.9l48.312-51.332s-25.666-16.607-21.137-43.783Z" transform="translate(-69.01 -168.95)" fill="#a0616a"/>
      <path id="Path_99" data-name="Path 99" d="M485.72,492.17c-.72.56-1.45,1.12-2.19,1.67q-4.05,3.03-8.33,5.75c-.87.55-1.74,1.09-2.62,1.61l-.37-2.01,3.48-1.81Z" transform="translate(-69.01 -168.95)" fill="#a0616a"/>
      <path id="Path_100" data-name="Path 100" d="M472.58,501.2c.88-.52,1.75-1.06,2.62-1.61l.03-.4.46-1.81,19.17-75.18-58.11-26.74-33.98,20.7-30.44-18.77s-17.88.65-22.41,5.18c-3.55,3.55-20.96,11.72-28.36,15.1-2.06.94-3.34,1.51-3.34,1.51s1.14,34.26,3.42,72.49c1.82,1.44,3.69,2.84,5.59,4.18,1.01.72,2.03,1.42,3.07,2.1a133.091,133.091,0,0,0,133.15,8.29Z" transform="translate(-69.01 -168.95)" fill="#13b973"/>
      <path id="Path_101" data-name="Path 101" d="M330.3,417.67v80.28c-1.04-.68-2.06-1.38-3.07-2.1-1.9-1.34-3.77-2.74-5.59-4.18-1.68-1.32-3.32-2.69-4.93-4.09a133.169,133.169,0,0,1-22.35-25.04q-1.86-2.715-3.6-5.52,1.47-4.83,3.3-10.67c7.55-24.15,24.16-28.68,24.16-28.68Z" transform="translate(-69.01 -168.95)" fill="#13b973"/>
      <path id="Path_102" data-name="Path 102" d="M472.58,501.2c.88-.52,1.75-1.06,2.62-1.61q4.275-2.715,8.33-5.75c.74-.55,1.47-1.11,2.19-1.67a133.417,133.417,0,0,0,19.7-18.9c2.09-2.45,4.08-4.99,5.98-7.59-6.15-19.22-16.54-43.48-16.54-43.48l-21.14-1.51s-8.58,68.68-10.27,85.55Z" transform="translate(-69.01 -168.95)" fill="#13b973"/>
      <path id="Path_103" data-name="Path 103" d="M376.775,302.5a68.592,68.592,0,0,1-5.668,4.337,53.886,53.886,0,0,0-6.833,6.787l-2.336,2.616c-1.988,2.226-4.1,4.767-4.014,7.75.031,1.107.371,2.181.5,3.281.529,4.361-2.137,9.155.057,12.961.634,1.1,1.616,1.961,2.315,3.021a7.062,7.062,0,0,1,1.116,4.6c2.358.1,4.292-2.016,5.032-4.258s.64-4.662,1-6.995,1.372-4.8,3.491-5.84c4.522-2.216,9.714,3.545,14.541,2.109,3.37-1,5.147-5.18,8.593-5.88,2.466-.5,4.84.964,7.132,2s5.382,1.519,7-.406c1.073-1.275,1.188-3.317,2.611-4.183,1.706-1.038,3.842.407,5.133,1.93s2.718,3.385,4.714,3.33c2.648-.074,4.676-3.6,7.189-2.763,2.837.944,1.532,5.484,3.253,7.928,1.455,2.067,4.5,1.945,7.007,1.6a2.51,2.51,0,0,0,2.613-3.351l-1.046-13.872a6.7,6.7,0,0,0-.614-2.769c-.728-1.319-2.237-1.988-3.262-3.092-2.156-2.322-2.053-6.392-4.734-8.081-1.392-.877-3.214-.85-4.6-1.743-1.773-1.144-2.344-3.436-3.586-5.141-1.776-2.439-4.88-3.569-7.88-3.88s-6.029.064-9.044-.034c-6.13-.2-12.26-1.925-18.42-.915C382.672,294.436,380.415,299,376.775,302.5Z" transform="translate(-69.01 -168.95)" fill="#2f2e41"/>
    </g>
  </g>
</svg>
